<svg xmlns="http://www.w3.org/2000/svg" xmlns:xlink="http://www.w3.org/1999/xlink" version="1.1" x="0px" y="0px" viewBox="0 0 100 125" width="23" height="23" style="enable-background:new 0 0 100 100;" xml:space="preserve"><path d="M80.1,5.5H19.9C11.7,5.5,5,12.2,5,20.4v60.3c0,8.2,6.7,14.9,14.9,14.9h60.3c8.2,0,14.9-6.7,14.9-14.9V20.4  C95,12.2,88.3,5.5,80.1,5.5z M85.1,20.4v7.9c0,2.5-2,4.5-4.5,4.5h-8.3c-2.5,0-4.5-2-4.5-4.5V20c0-2.5,2-4.5,4.5-4.5h8.3  c2.5,0,4.5,2,4.5,4.5V20.4z M67.1,50.5c0,9.5-7.7,17.1-17.1,17.1c-9.5,0-17.1-7.7-17.1-17.1c0-9.4,7.7-17.1,17.1-17.1  C59.4,33.4,67.1,41,67.1,50.5z M80.1,85.6H19.9c-2.7,0-5-2.2-5-5V41.3h9.6c-1,2.9-1.6,5.9-1.6,9.2c0,14.9,12.1,27,27.1,27  c14.9,0,27-12.1,27-27c0-3.2-0.6-6.3-1.6-9.2h9.6v39.3C85.1,83.4,82.9,85.6,80.1,85.6z" fill="#ffffff"/></svg>