<?xml version="1.0" encoding="utf-8"?>
<!-- Generator: Adobe Illustrator 24.1.3, SVG Export Plug-In . SVG Version: 6.00 Build 0)  -->
<svg version="1.1" id="Слой_1" xmlns="http://www.w3.org/2000/svg" xmlns:xlink="http://www.w3.org/1999/xlink" x="0px" y="0px"
	 viewBox="0 0 1920 1080" style="enable-background:new 0 0 1920 1080;" xml:space="preserve">
<style type="text/css">
	.st0{fill:#F8F8F8;}
	.st1{fill:#343434;}
	.st2{fill:#3B3B3B;}
</style>
<g>
	<path class="st0" d="M1000.9,548.8c-51.6,0-103.3,0-154.9-0.1c-1.3,0-3.1,1.1-4-0.9c1.7-0.2,3.3,0.6,4.7-1.6
		c1.9-2.8,6.3-2.7,8.5,0.2c1.3,1.8,2.7,1.5,4.6,1c-1.9-4.4-3.8-8.7-5.7-13c-0.6-1.4-0.8-3.2-3.1-3.3c-2.3-0.1-2.5,1.7-3.2,3.1
		c-2.1,3.8-2.7,8.3-5.8,11.6c0-4.6,0.1-9.2-0.1-13.7c-0.1-1.7,0.3-2.3,2.1-2c0.6,0.1,1.3,0,2,0c76.3,0,152.5,0,228.8-0.1
		c3.4,0,4.4,0.6,4.1,4c-0.4,4.1-0.2,8.2,0,12.3c0.1,2.1-0.4,2.6-2.6,2.5c-9.2-0.2-18.3-0.1-27.5-0.1c0.5-1.6,1.9-0.8,2.9-1
		c4.7-1.3,7.2-5.4,6.2-10.1c-1-4.6-4.8-7.1-10-6.5c-4.5,0.5-7.4,4.2-7.4,8.8c0,4.9,4,6.5,7.2,8.9c-15.3,0-30.6,0-46,0
		c0.3-1.1,1.2-0.9,2-0.9c2.9-0.3,4.6-2,4.8-4.7c0.2-2.7-1.9-3.9-4.2-4.8c-1.9-0.7-5.3-0.4-4.8-3.1c0.5-2.7,3.5-1.5,5.5-1
		c1.1,0.3,2,0.4,2.4-0.8c0.4-1.4-0.9-1.5-1.7-1.9c-3.5-1.6-8.1-0.5-9.1,2.4c-1.5,4.7,1.8,6,5.4,6.9c1.6,0.4,3.7,0.7,3.2,2.8
		c-0.5,1.9-2.6,1.4-4.2,1.4c-1.6,0-3.6-3-4.6-0.3c-0.8,2.3,2.5,2.2,4,3.2C1000.7,548.2,1000.8,548.5,1000.9,548.8z M909.1,541.5
		c-2.9-3.7-4.9-6.2-6.9-8.8c-0.9-1.2-2-1.8-3.4-1.5c-1.9,0.4-1.3,2-1.4,3.2c-0.1,3.4,0,6.9,0,10.3c0,1.4-0.4,3.1,2,3
		c2.6-0.1,1.6-2,1.7-3.2c0.1-1.9,0-3.8,0-7.2c2.9,3.7,4.9,6.2,6.7,8.8c1,1.4,2.2,1.9,3.8,1.6c2.1-0.4,1.2-2,1.2-3.1
		c0.1-3.8,0-7.5,0-11.3c0-1.2-0.2-2.2-1.9-2.2c-1.5,0.1-2,0.8-2,2.1C909.2,535.6,909.1,537.9,909.1,541.5z M880.4,539.3
		c0,8.7,0,8.7,9,8.5c0.3,0,0.7,0,1,0c1-0.1,2.5,0.4,2.6-1.4c0.2-2.1-1.4-1.6-2.7-1.9c-2-0.4-5.6,1.4-5.8-1.5
		c-0.2-3.5,3.5-1.4,5.4-1.9c1-0.3,1.9-0.4,1.9-1.7c0-1-0.6-1.3-1.5-1.5c-2-0.6-5.9,1.4-5.8-1.4c0.1-3.8,4.2-1.1,6.5-1.9
		c1-0.3,1.9-0.6,1.8-1.8c-0.1-0.9-0.5-1.5-1.5-1.5c-3.3,0-7-0.8-9.8,0.4c-2.4,1-0.7,4.7-1.1,7.2C880.4,539,880.4,539.2,880.4,539.3z
		 M937.9,539.4c0,8.6,0,8.6,9,8.4c0.3,0,0.7,0,1,0c1.1-0.1,2.5,0.3,2.6-1.5c0.1-1.7-1.2-1.7-2.4-1.7c-1.5,0-3,0-4.5,0
		c-1.2,0-1.8-0.6-1.7-1.8c0-1.2,0.8-1.5,1.9-1.7c1.8-0.4,5.2,1.5,5.2-1.6c0-3.1-3.4-1-5.2-1.5c-1.1-0.3-1.9-0.4-1.8-1.7
		c0-1.3,0.7-1.7,1.9-1.7c1.5,0,3,0,4.5,0c1.1,0,1.9-0.5,1.9-1.7c0-1.3-0.8-1.4-1.9-1.6C939.5,529.6,937.9,530.9,937.9,539.4z
		 M933,537.5c0-1.1,0.1-2.3,0-3.4c-0.1-1.2,0.5-2.7-1.6-2.8c-2.3-0.1-2.3,1.3-2.2,2.9c0,2,0,3.9,0,5.9c0,2.3-0.6,4.5-3.3,4.6
		c-2.8,0.1-3.4-2.2-3.6-4.4c-0.2-2.3,0-4.6-0.1-6.8c0-1-0.1-2-1.5-2.1c-1.1,0-2.1,0.1-2.2,1.4c-0.1,3.9-0.8,7.9,0.8,11.6
		c1.1,2.7,3.5,3.8,6.4,3.7c3.1,0,5.4-1.3,6.6-4.2C933.3,541.7,932.9,539.6,933,537.5z M1075.3,541.8c-0.4,0.1-0.7,0.2-1.1,0.3
		c-2.5-3.1-5-6.3-7.5-9.4c-0.7-0.9-1.6-1.8-2.9-1.4c-1.6,0.4-1.1,1.8-1.1,2.8c-0.1,3.8,0,7.5,0,11.3c0,1.1-0.3,2.5,1.6,2.4
		c1.7-0.1,1.5-1.5,1.5-2.5c0-2.6,0-5.3,0-9.1c3.4,4.3,5.8,7.3,8.2,10.4c0.8,1,1.7,1.5,3,1.2c1.1-0.2,1.1-1.1,1.1-1.9
		c0-4.2,0-8.5,0-12.7c0-0.8,0-1.7-1.1-1.8c-1.4-0.1-1.6,0.9-1.6,1.9C1075.3,536.1,1075.3,539,1075.3,541.8z M868.5,541.5
		c-1.4-3.3-2.5-5.9-3.6-8.6c-0.6-1.5-1.8-1.9-3.2-1.5c-1.9,0.5-0.8,1.9-0.5,2.7c1.5,4,3.2,7.8,4.8,11.8c0.5,1.1,0.9,2,2.4,2
		c1.4,0,2-0.8,2.5-1.9c1.6-3.9,3.2-7.8,4.8-11.8c0.3-0.9,1.5-2.2-0.3-2.8c-1.3-0.4-2.6-0.1-3.3,1.4
		C871,535.5,869.9,538.1,868.5,541.5z M1027.1,539.9c0-1.6,0.1-3.3,0-4.9c-0.1-1.3,0.9-3.5-1.2-3.6c-2.3-0.1-1.6,2.1-1.5,3.4
		c0.2,2.7-0.8,3.5-3.6,3.7c-3.8,0.2-5.2-1-4.6-4.7c0.2-1,0.4-2.5-1.4-2.5c-1.7,0-1.6,1.3-1.6,2.4c0,3.9,0,7.8,0,11.7
		c0,1.2-0.1,2.4,1.7,2.3c1.9-0.1,1.3-1.5,1.4-2.5c0.1-0.6,0.1-1.3,0-2c-0.1-2.2,1.4-2.4,3-2.1c1.7,0.3,4.1-1.3,5.2,1.4
		c0.7,1.7-1.6,5.3,1.8,4.8c2.3-0.3,0.5-4,1-6.1C1027.2,540.9,1027.1,540.4,1027.1,539.9z M993.1,547.5c-2.1-4.7-4.1-9.1-6.1-13.6
		c-0.5-1.2-0.8-2.6-2.5-2.7c-2-0.1-2.3,1.5-2.9,2.8c-1.7,3.7-3.3,7.5-5,11.2c-0.4,0.8-1.4,1.8-0.1,2.4c0.9,0.4,1.7,0,2.5-0.9
		c3.3-3.9,7.5-3.8,10.8,0.2C990.6,547.9,991.4,547.9,993.1,547.5z M963.7,539.6c0,2.1,0,4.2,0,6.3c0,1.1,0.3,1.9,1.7,1.8
		c1-0.1,1.6-0.7,1.4-1.6c-1-4.8,1.6-5.8,5.7-5.2c0.7,0.1,1.3-0.1,1.4-1c0-1-0.6-1.2-1.4-1.6c-1.9-0.8-5.8,2-5.5-2.4
		c0.3-4.1,3.9-1.2,5.9-2c0.9-0.3,2.1-0.1,2-1.5c-0.1-1.4-1.2-1.2-2.2-1.3c-8.5-1.1-9-0.7-9,7.5C963.7,539,963.7,539.3,963.7,539.6z
		 M1036.5,539.4C1036.5,539.4,1036.5,539.4,1036.5,539.4c0-2.1,0-4.2,0-6.3c0-1.1-0.4-1.9-1.7-1.8c-1,0.1-1.4,0.8-1.4,1.7
		c0,4.4,0,8.7,0,13.1c0,1.2,0.5,1.8,1.7,1.8c1.4-0.1,1.4-1.1,1.4-2.1C1036.5,543.6,1036.5,541.5,1036.5,539.4z"/>
	<path class="st1" d="M842.1,545.8c3.1-3.3,3.7-7.8,5.8-11.6c0.8-1.4,0.9-3.1,3.2-3.1c2.3,0.1,2.4,1.8,3.1,3.3
		c1.9,4.3,3.8,8.6,5.7,13c-1.9,0.5-3.3,0.7-4.6-1c-2.2-2.8-6.6-3-8.5-0.2c-1.4,2.1-3.1,1.4-4.7,1.6
		C842.1,547.1,842.1,546.5,842.1,545.8z"/>
	<path class="st1" d="M1047.9,548.8c-3.2-2.3-7.2-3.9-7.2-8.9c0-4.7,2.9-8.3,7.4-8.8c5.2-0.6,9.1,1.9,10,6.5c1,4.7-1.5,8.8-6.2,10.1
		c-1,0.3-2.4-0.6-2.9,1C1048.5,548.8,1048.2,548.8,1047.9,548.8z M1043.7,539.4c0.1,3.7,2.1,5.8,5.9,5.8c3.6,0,5.5-2.2,5.6-5.5
		c0.1-3.6-1.8-6-5.6-6C1045.8,533.6,1043.8,535.7,1043.7,539.4z"/>
	<path class="st2" d="M1000.9,548.8c-0.2-0.3-0.3-0.6-0.5-0.8c-1.4-1.1-4.7-0.9-4-3.2c0.9-2.7,3,0.3,4.6,0.3c1.7,0,3.7,0.6,4.2-1.4
		c0.6-2.1-1.6-2.4-3.2-2.8c-3.6-0.9-6.9-2.3-5.4-6.9c0.9-2.9,5.5-4,9.1-2.4c0.8,0.4,2.1,0.5,1.7,1.9c-0.4,1.2-1.3,1-2.4,0.8
		c-2-0.5-5-1.7-5.5,1c-0.5,2.7,2.9,2.4,4.8,3.1c2.3,0.9,4.4,2.1,4.2,4.8c-0.2,2.7-1.9,4.4-4.8,4.7c-0.8,0.1-1.7-0.1-2,0.9
		C1001.6,548.8,1001.3,548.8,1000.9,548.8z"/>
	<path class="st1" d="M909.1,541.5c0-3.7,0-5.9,0-8.2c0-1.4,0.5-2.1,2-2.1c1.7-0.1,1.9,0.9,1.9,2.2c0,3.8,0.1,7.5,0,11.3
		c0,1.1,0.9,2.8-1.2,3.1c-1.6,0.3-2.8-0.2-3.8-1.6c-1.9-2.6-3.9-5.1-6.7-8.8c0,3.4,0.1,5.3,0,7.2c-0.1,1.2,0.9,3.2-1.7,3.2
		c-2.4,0.1-2-1.6-2-3c0-3.4-0.1-6.9,0-10.3c0-1.2-0.6-2.8,1.4-3.2c1.5-0.3,2.5,0.3,3.4,1.5C904.2,535.3,906.2,537.9,909.1,541.5z"/>
	<path class="st2" d="M880.4,539.3c0-0.2,0-0.3,0-0.5c0.4-2.5-1.4-6.2,1.1-7.2c2.8-1.2,6.5-0.4,9.8-0.4c1,0,1.5,0.6,1.5,1.5
		c0.1,1.3-0.8,1.5-1.8,1.8c-2.2,0.7-6.3-2-6.5,1.9c-0.1,2.8,3.8,0.8,5.8,1.4c0.9,0.3,1.5,0.5,1.5,1.5c0,1.3-0.9,1.4-1.9,1.7
		c-1.9,0.5-5.6-1.6-5.4,1.9c0.2,2.9,3.8,1.1,5.8,1.5c1.2,0.3,2.8-0.3,2.7,1.9c-0.1,1.8-1.5,1.3-2.6,1.4c-0.3,0-0.7,0-1,0
		C880.4,548,880.4,548,880.4,539.3z"/>
	<path class="st1" d="M937.9,539.4c0-8.6,1.6-9.8,10.2-8.2c1.1,0.2,1.9,0.4,1.9,1.6c0,1.3-0.7,1.7-1.9,1.7c-1.5,0-3,0-4.5,0
		c-1.2,0-1.9,0.4-1.9,1.7c-0.1,1.3,0.7,1.4,1.8,1.7c1.8,0.5,5.2-1.6,5.2,1.5c0,3.1-3.4,1.1-5.2,1.6c-1.1,0.3-1.8,0.5-1.9,1.7
		c0,1.2,0.5,1.8,1.7,1.8c1.5,0,3,0,4.5,0c1.2,0,2.4,0,2.4,1.7c-0.1,1.7-1.5,1.4-2.6,1.5c-0.3,0-0.7,0-1,0
		C937.9,548.1,937.9,548.1,937.9,539.4z"/>
	<path class="st1" d="M933,537.5c-0.1,2.1,0.3,4.2-0.6,6.3c-1.2,2.9-3.6,4.2-6.6,4.2c-2.9,0-5.3-1.1-6.4-3.7
		c-1.5-3.7-0.9-7.7-0.8-11.6c0-1.3,1.1-1.4,2.2-1.4c1.4,0,1.5,1.1,1.5,2.1c0,2.3-0.1,4.6,0.1,6.8c0.2,2.2,0.7,4.5,3.6,4.4
		c2.7-0.1,3.3-2.3,3.3-4.6c0-2,0-3.9,0-5.9c0-1.6,0-3,2.2-2.9c2.2,0.1,1.5,1.7,1.6,2.8C933.1,535.2,933,536.3,933,537.5z"/>
	<path class="st1" d="M1075.3,541.8c0-2.8,0-5.7,0-8.5c0-1,0.2-2,1.6-1.9c1.1,0.1,1.1,1,1.1,1.8c0,4.2,0,8.5,0,12.7
		c0,0.8,0,1.6-1.1,1.9c-1.3,0.3-2.2-0.2-3-1.2c-2.4-3.1-4.9-6.2-8.2-10.4c0,3.8,0,6.5,0,9.1c0,1.1,0.3,2.4-1.5,2.5
		c-1.9,0.1-1.6-1.3-1.6-2.4c0-3.8-0.1-7.5,0-11.3c0-1-0.5-2.4,1.1-2.8c1.3-0.3,2.2,0.5,2.9,1.4c2.5,3.1,5,6.3,7.5,9.4
		C1074.6,542,1075,541.9,1075.3,541.8z"/>
	<path class="st1" d="M868.5,541.5c1.4-3.3,2.5-6,3.6-8.7c0.6-1.5,1.9-1.8,3.3-1.4c1.9,0.6,0.7,1.9,0.3,2.8c-1.5,4-3.2,7.9-4.8,11.8
		c-0.5,1.1-1,1.9-2.5,1.9c-1.5,0-2-0.9-2.4-2c-1.6-3.9-3.3-7.8-4.8-11.8c-0.3-0.9-1.5-2.2,0.5-2.7c1.4-0.3,2.6,0,3.2,1.5
		C866,535.5,867.2,538.2,868.5,541.5z"/>
	<path class="st2" d="M1027.1,539.9c0,0.5,0.1,1,0,1.5c-0.5,2.1,1.3,5.7-1,6.1c-3.4,0.5-1.1-3.1-1.8-4.8c-1.1-2.8-3.4-1.1-5.2-1.4
		c-1.5-0.3-3.1-0.1-3,2.1c0,0.6,0,1.3,0,2c-0.1,1,0.5,2.5-1.4,2.5c-1.7,0.1-1.7-1.2-1.7-2.3c0-3.9,0-7.8,0-11.7
		c0-1.1-0.1-2.5,1.6-2.4c1.8,0,1.6,1.5,1.4,2.5c-0.5,3.7,0.9,4.9,4.6,4.7c2.8-0.1,3.8-0.9,3.6-3.7c-0.1-1.2-0.8-3.5,1.5-3.4
		c2.1,0.1,1.1,2.3,1.2,3.6C1027.2,536.6,1027.1,538.3,1027.1,539.9z"/>
	<path class="st1" d="M993.1,547.5c-1.7,0.4-2.5,0.5-3.3-0.5c-3.3-4-7.5-4.2-10.8-0.2c-0.8,0.9-1.6,1.3-2.5,0.9
		c-1.3-0.6-0.3-1.6,0.1-2.4c1.7-3.7,3.3-7.5,5-11.2c0.6-1.3,0.9-2.9,2.9-2.8c1.7,0.1,2,1.5,2.5,2.7C989,538.3,991,542.8,993.1,547.5
		z M984.4,535.6c-0.7,1.9-3.2,3.3-1.8,5.4c0.4,0.6,3.2,0.6,3.6,0C987.6,539,985,537.6,984.4,535.6z"/>
	<path class="st2" d="M963.7,539.6c0-0.3,0-0.7,0-1c0-8.2,0.5-8.5,9-7.5c1,0.1,2.1-0.1,2.2,1.3c0.1,1.4-1.1,1.2-2,1.5
		c-2,0.8-5.6-2.1-5.9,2c-0.3,4.4,3.6,1.7,5.5,2.4c0.8,0.3,1.5,0.6,1.4,1.6c0,0.9-0.7,1.1-1.4,1c-4.1-0.5-6.7,0.4-5.7,5.2
		c0.2,0.9-0.4,1.5-1.4,1.6c-1.4,0.1-1.7-0.7-1.7-1.8C963.7,543.9,963.7,541.8,963.7,539.6z"/>
	<path class="st2" d="M1036.5,539.4c0,2.1,0,4.2,0,6.3c0,1,0,2-1.4,2.1c-1.3,0.1-1.7-0.6-1.7-1.8c0-4.4,0-8.7,0-13.1
		c0-0.9,0.4-1.6,1.4-1.7c1.3-0.1,1.7,0.7,1.7,1.8C1036.5,535.2,1036.5,537.3,1036.5,539.4C1036.5,539.4,1036.5,539.4,1036.5,539.4z"
		/>
	<path class="st0" d="M1043.7,539.4c0.1-3.7,2.1-5.8,5.9-5.8c3.9,0,5.7,2.4,5.6,6c-0.1,3.4-2,5.5-5.6,5.5
		C1045.8,545.2,1043.8,543.2,1043.7,539.4z"/>
	<path class="st0" d="M984.4,535.6c0.6,2,3.2,3.4,1.8,5.5c-0.4,0.6-3.2,0.5-3.6,0C981.2,538.9,983.7,537.5,984.4,535.6z"/>
</g>
</svg>
