<svg xmlns="http://www.w3.org/2000/svg"><symbol viewBox="0 0 16 16" id="icon-login"><path class="cls-1" d="M0 7h7.01V4.06l3.95 3.95-3.95 3.9V9.06L0 9.02V7z"/><path class="cls-1" d="M7.01 0v2h7.02v11.99H7.01V16H16V0H7.01z"/></symbol><symbol viewBox="0 0 50 60" id="icon-field"><path d="M27 60h-4c-7.7-3.3-15.3-6.7-23-10V0h50v50c-7.7 3.3-15.3 6.7-23 10z"/><path d="M0 50c7.7 3.3 15.3 6.7 23 10H0V50zm27 10c7.7-3.3 15.3-6.7 23-10v10H27z" fill="#fff"/></symbol><symbol viewBox="0 0 51.5 49.5" id="icon-beard-1"><path d="M50.9 0h-.2c-2.3 7.7-2.9 17.1-9.4 20.6-1.2-3.4-4.1-4.9-7.4-6.4-2.1-.9-4.5-2.6-6.6-2.6-.5 0-1 0-1.5.3-.5-.3-1-.3-1.5-.3-2.1.1-4.5 1.7-6.6 2.6-3.3 1.5-6.3 3-7.4 6.4C3.8 17.1 3.2 7.7.9 0H.6C.3.7.2 1.6 0 2.4c0 1.9.5 21.5 1.9 28.4C3.2 37.2 8 41.7 12.7 44.7c3.3 2.1 8.5 4.8 13 4.8s9.7-2.8 13-4.8c4.7-3 9.6-7.5 10.8-13.8 1.4-7 1.9-26.5 1.9-28.4-.1-.9-.2-1.8-.5-2.5zM37 28.1c-.2 1.6-1.7 3.4-3.4 3.5-3 .2-4.5-4.4-7.9-4.4-3.4 0-4.9 4.5-7.9 4.4-1.7-.1-3.1-1.9-3.4-3.5-.3-1.9.6-4.6 1.7-5.6 1.1-1.1 2.8-.9 4.7-1.2 2-.3 3.8-.9 4.9-1.9 1.1 1.1 2.8 1.7 4.9 1.9 1.9.3 3.6.1 4.7 1.2 1.1 1 2 3.7 1.7 5.6z" fill="#826550"/></symbol><symbol viewBox="0 0 57.7 68.6" id="icon-beard-2"><path d="M51.6 22.2c.1-1.7.5-3.5.7-5.4.7-5.4 1.6-11.7-.1-16.8H52c-1.3 3.7-1.3 8.3-2.2 12.4-.7 3-1.8 5.7-3.2 7.6-.5.7-1.1 1.5-1.9 1.8-.7-3.9-4.3-4.9-7.7-6.4-2.1-.9-4-2-6.1-2.2-.8-.1-1.5.2-2 .2s-1.2-.3-2-.2c-2.1.1-4 1.3-6.1 2.2-3.4 1.4-7 2.4-7.7 6.4-.9-.3-1.4-1.1-1.9-1.8-1.5-1.9-2.6-4.6-3.2-7.6C7 8.3 7 3.7 5.7 0h-.2c-1.7 5.1-.8 11.4-.1 16.8.2 1.9.6 3.7.7 5.4.8 11.1-7 23.1-6 28.9.9 7.5 8.4 9.4 14.2 12.4 4.3 2.2 8.3 5 13.3 5.2h2.6c5-.2 9-2.9 13.3-5.2 5.8-3 13.2-4.8 14.2-12.4.9-5.8-6.9-17.8-6.1-28.9zm-22.8 3.7c-2.5 0-5.1-.1-7.2-.5.7-2.1 4-1.6 7.1-1.6h.2c3 0 6.4-.5 7.1 1.6-2.1.5-4.6.6-7.2.5z" fill="#826550"/></symbol><symbol viewBox="0 0 62.4 78.5" id="icon-beard-3"><path d="M62.4 42c0-5.2-2.4-7.8-3.6-10-.9-1.6-4-10.8-4.2-17.6C54.5 9.5 52.9 2 51.7 0c-.9 0-1.5 7.8-2.3 11.6-1.4 7-3.8 8.9-4.4 9-.8-2.8-4.1-7.4-13.7-7.7h-.2c-9.6.4-12.9 4.9-13.7 7.7-.7-.1-3-2-4.4-9C12.2 7.8 11.5 0 10.7 0 9.5 2 7.9 9.5 7.8 14.4c-.2 6.9-3.3 16-4.2 17.6C2.4 34.2 0 36.8 0 42c0 3.7 5.2 7.2 5.6 11.4.1 1.2 0 2.3.1 3.4 2 17.5 17.9 21.7 25.4 21.7 7.6 0 23.4-4.2 25.4-21.7.2-1 0-2.1.1-3.4.6-4.2 5.8-7.7 5.8-11.4zM33.2 26.8c-.7-.1-3.4-.1-4.1 0-1.7.3-5.8 1-5.8-1.1 0-1.1 6.7-2.3 7.8-2.3 1.1 0 7.8 1.2 7.8 2.3.1 2-3.9 1.4-5.7 1.1z" fill="#826550"/></symbol><symbol viewBox="0 0 57 97.7" id="icon-beard-4"><path d="M51.1 15.2c-.4-5.4-.6-10.8-2.5-15.2-.8 0-1.5 7.3-2.3 10.9-1.5 7.1-3.7 8.3-4.4 8.3-.9-3.9-4.4-4.2-7.8-5.9-1.2-.6-2.3-1.1-3.6-1.2-.7-.1-1.3.1-2 .1s-1.3-.2-2-.1c-1.3.1-2.4.6-3.6 1.2-3.4 1.6-6.9 2-7.8 5.9-.7 0-3-1.1-4.4-8.3C9.9 7.3 9.2 0 8.4 0 6.5 4.4 6.3 9.8 5.9 15.2 5 38.8 0 51.5 0 62.4c0 26.1 11.7 35.3 28.5 35.3S57 88.5 57 62.4c0-10.9-5-23.6-5.9-47.2zM34.4 25c-2.8 1.2-5.4-.7-5.9-.7h-.2c-.5 0-3.1 1.9-5.9.7-.8-3.6 2.4-4 5.9-3.9 3.7-.2 6.9.3 6.1 3.9z" fill="#826550"/></symbol><symbol viewBox="0 0 44.7 104.8" id="icon-beard-5"><path d="M44 0h-.1c-2.8 21.5-5.4 22.6-7 22.7-1.4.1-3.6-1.8-4.9-2.5-1.5-.9-4.1-2.5-9.1-2.5s-7.6 1.7-9.1 2.5c-1.3.7-3.5 2.6-4.9 2.5C7.4 22.6 4.8 21.5 2 0h-.1C-.2 12.2.3 50.2 3.1 63.6c2.6 18.5 10.1 35.1 13.4 39.6.7 1 3.5 1.6 6.4 1.6 2.9 0 5.7-.5 6.4-1.6 3.3-4.5 10.8-21.1 13.4-39.6C45.5 50.2 46 12.2 44 0zM22.9 28.2c-3.4 0-6.7.2-10.1.5 1.1-1.8 9-3.2 10.1-3.4 1.1.2 9 1.7 10.1 3.4-3.4-.4-6.7-.5-10.1-.5z" fill="#826550"/></symbol><symbol viewBox="0 0 141.7 146.5" id="icon-clock" fill="#fff"><path class="st0" d="M71.8 28.5V8c0-.6-.4-1-1-1s-1 .4-1 1v20.5h1c.4-.1.7 0 1 0zm-26 6.9c.6-.3 1.1-.7 1.7-1L37.3 16.7c-.3-.5-.9-.6-1.4-.4-.5.3-.6.9-.4 1.4l10.3 17.7zm-35.3 6.3c-.3.5-.1 1.1.4 1.4l17.7 10.3c.3-.6.7-1.2 1-1.7L11.9 41.4c-.5-.3-1.1-.2-1.4.3zm95.9-26.2c-.5-.3-1.1-.1-1.4.4L94.2 34.5c.6.3 1.2.7 1.7 1l10.8-18.6c.4-.5.2-1.1-.3-1.4zm25.4 27.2c.5-.3.6-.9.4-1.4-.3-.5-.9-.6-1.4-.4l-18.6 10.8c.3.6.7 1.1 1 1.7l18.6-10.7zM22.5 76.8v-1H1c-.6 0-1 .4-1 1s.4 1 1 1h21.5v-1zm118.2-1h-21.5v2h21.5c.6 0 1-.4 1-1s-.5-1-1-1zm-9.9 34.6l-17.7-10.3c-.3.6-.7 1.2-1 1.7l17.7 10.3c.2.1.3.1.5.1.3 0 .7-.2.9-.5.2-.4.1-1-.4-1.3zm-120.9.5c-.5.3-.6.9-.4 1.4.2.3.5.5.9.5.2 0 .3 0 .5-.1l18.6-10.8c-.3-.6-.7-1.1-1-1.7L9.9 110.9zm86 7.2c-.6.3-1.1.7-1.7 1l10.2 17.7c.2.3.5.5.9.5.2 0 .3 0 .5-.1.5-.3.6-.9.4-1.4l-10.3-17.7zm-61 18.6c-.3.5-.1 1.1.4 1.4.2.1.3.1.5.1.3 0 .7-.2.9-.5l10.8-18.6c-.6-.3-1.2-.7-1.7-1l-10.9 18.6zm34.9-11.6v20.5c0 .6.4 1 1 1s1-.4 1-1v-20.5h-2zm34.9-66.2c.7-.4 1-1.3.5-2-.4-.7-1.3-1-2-.5L74.8 72.7c-1-1-2.4-1.6-4-1.6-1.5 0-2.9.6-4 1.6L46.5 60.9c-.7-.4-1.6-.2-2.1.5-.4.7-.2 1.6.5 2.1l20.3 11.8c-.1.5-.2.9-.2 1.4 0 3.1 2.5 5.7 5.7 5.7 3.1 0 5.7-2.5 5.7-5.7 0-.5-.1-1-.2-1.4l28.5-16.4zM75.3 73.3zm.4.6zm-9.7 0c-.1 0-.1 0 0 0-.1 0-.1 0 0 0zm.4-.6s-.1 0 0 0c-.1 0 0 0 0 0zm4.4 6.1c-1.5 0-2.7-1.2-2.7-2.7s1.2-2.7 2.7-2.7c1.5 0 2.7 1.2 2.7 2.7s-1.2 2.7-2.7 2.7z"/></symbol></svg>