<?xml version="1.0" encoding="utf-8"?>	
<svg xmlns="http://www.w3.org/2000/svg" xmlns:xlink="http://www.w3.org/1999/xlink">
	<symbol viewBox="0 0 137 23.9" id="icon-logo"> 
			<path d="M25,10.9L10.6,0.3C10.2,0,9.7-0.1,9.2,0.2C8.8,0.4,8.5,0.9,8.5,1.4v6.6H3.7
		C3.3,8,2.9,8.4,3,8.9c0,0.4,0.4,0.7,0.8,0.8h4.8v1.4H0.8C0.3,11.1,0,11.5,0,12c0,0.4,0.4,0.7,0.8,0.8h7.7v1.4H3.7
		c-0.5,0.1-0.8,0.5-0.8,1c0,0.4,0.4,0.7,0.8,0.8h4.8v6.6c0,0.5,0.3,1,0.7,1.2c0.2,0.1,0.4,0.2,0.6,0.2c0.3,0,0.5-0.1,0.8-0.3L25,13.1
		c0.3-0.3,0.5-0.7,0.5-1.1C25.5,11.5,25.3,11.1,25,10.9z M11.2,20.1V16h2.6c0.5-0.1,0.8-0.5,0.8-1c0-0.4-0.4-0.7-0.8-0.8h-2.6l0-1.4
		h5.1c0.5-0.1,0.8-0.5,0.8-1c0-0.4-0.4-0.7-0.8-0.8h-5.2l0-1.4h2.6c0.5-0.1,0.8-0.5,0.8-1c0-0.4-0.4-0.7-0.8-0.8h-2.6l0-4L22,12
		L11.2,20.1z M40.2,12.3c-0.4-0.4-0.8-0.8-1.3-1c-0.6-0.4-1.2-0.7-1.8-0.9c-0.3-0.1-0.6-0.3-0.9-0.4c-0.3-0.1-0.6-0.3-0.9-0.5
		C35,9.2,34.8,9,34.5,8.8c-0.2-0.2-0.3-0.5-0.3-0.8c0-0.2,0-0.4,0.1-0.6c0.1-0.2,0.2-0.4,0.3-0.5c0.1-0.2,0.3-0.3,0.5-0.4
		c0.4-0.2,0.9-0.2,1.4,0c0.2,0.1,0.5,0.2,0.7,0.3c0.2,0.1,0.4,0.2,0.6,0.3c0.2,0.1,0.4,0.2,0.5,0.3c0.1,0.1,0.3,0.2,0.5,0.2
		c0.2,0,0.4,0,0.6,0c0.2,0,0.4-0.1,0.6-0.2c0.2-0.1,0.3-0.3,0.5-0.5c0.2-0.4,0.3-0.9,0.1-1.3c-0.2-0.5-0.5-0.9-0.9-1.1
		c-0.5-0.4-1-0.7-1.6-0.8c-0.7-0.2-1.3-0.4-2-0.4H36c-0.6,0-1.2,0.1-1.8,0.3C33.6,3.7,33,4,32.5,4.4c-2,1.5-2.3,4.3-0.8,6.3
		c0.2,0.2,0.3,0.4,0.5,0.5c0.4,0.4,0.9,0.7,1.5,1c0.6,0.3,1.2,0.5,1.8,0.8c0.3,0.1,0.5,0.2,0.7,0.3c0.3,0.1,0.5,0.3,0.7,0.5
		c0.2,0.2,0.4,0.4,0.6,0.7c0.1,0.3,0.2,0.6,0.2,0.9c0,0.3-0.1,0.6-0.2,0.9c-0.1,0.3-0.3,0.5-0.5,0.7c-0.2,0.2-0.5,0.3-0.7,0.4
		c-0.6,0.2-1.2,0.2-1.8,0c-0.3-0.1-0.6-0.2-0.8-0.3c-0.3-0.1-0.5-0.3-0.8-0.5c-0.2-0.2-0.5-0.3-0.7-0.5c-0.3-0.2-0.6-0.3-1-0.2
		c-0.4,0.1-0.7,0.3-0.9,0.7c-0.1,0.2-0.2,0.5-0.2,0.7c0,0.3,0,0.6,0.2,0.9c0.1,0.3,0.3,0.6,0.6,0.8c0.3,0.3,0.6,0.5,1,0.7
		c0.5,0.3,1,0.5,1.6,0.7c0.5,0.2,1.1,0.3,1.7,0.3c0.1,0,0.2,0,0.3,0c1.6,0.1,3.1-0.5,4.3-1.6c1-1,1.5-2.4,1.5-3.9
		c0-0.5,0-1.1-0.2-1.6C40.8,13.1,40.5,12.7,40.2,12.3L40.2,12.3z M54.7,3.4c-0.5-0.1-1,0.1-1.3,0.5c-0.2,0.3-0.4,0.6-0.4,1v8.6
		c0,0.6,0,1.2-0.1,1.8c-0.1,0.4-0.2,0.9-0.5,1.2c-0.2,0.3-0.5,0.6-0.9,0.8c-1,0.4-2.1,0.4-3.1,0c-0.4-0.2-0.7-0.4-0.9-0.8
		C47.2,16,47,15.6,47,15.1c-0.1-0.6-0.2-1.1-0.2-1.7V4.8c0-0.4-0.1-0.7-0.4-1c-0.3-0.3-0.8-0.5-1.3-0.4c-0.5,0-1,0.1-1.3,0.5
		c-0.2,0.3-0.4,0.6-0.4,1v10c0,0.9,0.2,1.8,0.6,2.6c0.4,0.7,0.9,1.3,1.5,1.8c0.6,0.5,1.3,0.8,2.1,1.1c1.5,0.5,3.2,0.5,4.7,0
		c0.7-0.2,1.4-0.6,2.1-1.1c1.3-1,2.1-2.6,2-4.3v-10c0-0.4-0.1-0.7-0.4-1C55.6,3.5,55.1,3.4,54.7,3.4L54.7,3.4z M66.5,13.3L66.5,13.3
		l0.5-0.1c1-0.2,1.9-0.7,2.5-1.5c0.7-0.9,1-2.1,0.9-3.2c0-0.8-0.1-1.6-0.4-2.3C69.9,5.6,69.5,5,69,4.6c-0.5-0.4-1.1-0.7-1.8-0.8
		c-0.8-0.2-1.6-0.2-2.4-0.2h-3.4c-0.3,0-0.7,0-1,0.1c-0.2,0-0.5,0.1-0.7,0.3c-0.2,0.1-0.3,0.4-0.4,0.6c-0.1,0.3-0.1,0.6-0.1,0.8v13.7
		c0,0.3,0.1,0.7,0.4,1c0.3,0.3,0.8,0.5,1.3,0.5c0.5,0,0.9-0.1,1.3-0.4c0.3-0.3,0.4-0.6,0.4-1V14l5.6,6.1c0.3,0.3,0.6,0.4,1,0.4
		c0,0,0.1,0,0.1,0c0.5,0,0.9-0.2,1.2-0.6c0.3-0.3,0.5-0.8,0.5-1.2c0-0.5-0.2-0.9-0.5-1.2L66.5,13.3z M62.6,10.4V6.7h2.2
		c0.3,0,0.6,0,0.9,0.1c0.3,0,0.5,0.1,0.7,0.3c0.2,0.1,0.4,0.3,0.5,0.5c0.1,0.3,0.2,0.6,0.2,0.9c0.1,0.6-0.1,1.1-0.5,1.5
		c-0.5,0.3-1.2,0.4-1.8,0.4L62.6,10.4L62.6,10.4z M82.5,3.6h-7c-0.4,0-0.9,0.1-1.2,0.3c-0.3,0.3-0.5,0.7-0.4,1.2v14.2
		c0,0.3,0.2,0.6,0.4,0.8c0.4,0.3,0.8,0.4,1.3,0.4c0.5,0,0.9-0.1,1.3-0.4c0.3-0.2,0.4-0.5,0.4-0.8v-6.1h4.6c0.4,0,0.8-0.1,1.2-0.3
		c0.3-0.3,0.4-0.7,0.4-1.1c0-0.4-0.1-0.8-0.4-1.2c-0.3-0.3-0.8-0.4-1.2-0.4h-4.6V6.7h5.3c0.4,0,0.8-0.1,1.1-0.3
		C83.9,6,84.1,5.6,84,5.1c0-0.4-0.1-0.9-0.4-1.2C83.3,3.7,82.9,3.6,82.5,3.6z M92.3,4.5c-0.1-0.3-0.3-0.6-0.6-0.8
		c-0.7-0.4-1.6-0.4-2.3,0c-0.3,0.2-0.5,0.5-0.6,0.8l-4.7,14C84,19,84.1,19.6,84.4,20c0.3,0.3,0.8,0.5,1.3,0.5c0.4,0,0.9-0.1,1.2-0.4
		c0.3-0.3,0.5-0.6,0.6-1l0.9-2.5h4.3l1,2.6c0.1,0.3,0.3,0.6,0.6,0.9c0.3,0.3,0.7,0.4,1.1,0.4h0.1c0.5,0,0.9-0.1,1.3-0.5
		c0.4-0.4,0.4-1,0.2-1.5L92.3,4.5z M89.2,13.5l1.5-4.8l1.5,4.8H89.2z M111.5,16.2c-0.4-0.2-1-0.1-1.3,0.2c-0.2,0.2-0.4,0.3-0.6,0.5
		c-0.2,0.1-0.4,0.3-0.6,0.4c-0.3,0.1-0.5,0.2-0.8,0.3c-0.3,0.1-0.7,0.1-1.1,0.1h-0.1c-0.7,0-1.3-0.1-1.9-0.5
		c-0.6-0.3-1.1-0.7-1.5-1.3c-0.4-0.6-0.7-1.2-0.9-1.8c-0.2-0.7-0.3-1.4-0.3-2.2c0-0.7,0.1-1.4,0.3-2.1c0.2-0.6,0.4-1.2,0.8-1.8
		c0.3-0.5,0.8-0.9,1.3-1.2c0.5-0.3,1.2-0.5,1.8-0.5c0.5,0,1,0.1,1.5,0.3c0.4,0.2,0.7,0.4,1.1,0.6c0.3,0.2,0.6,0.4,0.9,0.5
		c0.3,0.2,0.7,0.2,1,0c0.2-0.1,0.4-0.2,0.5-0.3c0.1-0.1,0.2-0.2,0.3-0.3c0-0.1,0.1-0.2,0.1-0.3c0.1-0.2,0.1-0.4,0-0.6
		c-0.1-0.3-0.2-0.7-0.5-0.9c-0.3-0.4-0.7-0.7-1.1-1c-1.1-0.7-2.4-1.1-3.8-1c-1,0-2,0.2-3,0.6c-0.9,0.4-1.7,1-2.4,1.7
		c-0.7,0.8-1.2,1.7-1.6,2.7c-0.4,1.2-0.6,2.4-0.6,3.7c0,1.3,0.2,2.5,0.6,3.7c0.4,1,0.9,2,1.7,2.8c0.7,0.8,1.6,1.4,2.6,1.7
		c1,0.4,2.1,0.6,3.2,0.6c0.7,0,1.5-0.1,2.2-0.3c0.6-0.2,1.1-0.5,1.6-0.8c0.4-0.3,0.8-0.6,1.1-1c0.2-0.2,0.4-0.5,0.4-0.9
		c0-0.3,0-0.6-0.2-0.9C112.2,16.5,111.9,16.3,111.5,16.2L111.5,16.2z M123.7,17.2h-5.3v-4h5c0.4,0,0.8-0.1,1.2-0.3
		c0.3-0.3,0.4-0.7,0.4-1.1c0-0.4-0.1-0.8-0.4-1.2c-0.3-0.3-0.8-0.4-1.2-0.4h-5V6.7h5.3c0.4,0,0.8-0.1,1.1-0.3
		c0.3-0.3,0.5-0.7,0.4-1.2c0-0.4-0.1-0.9-0.4-1.2c-0.3-0.2-0.7-0.4-1.1-0.3h-7c-0.4,0-0.9,0.1-1.2,0.3c-0.3,0.3-0.5,0.7-0.4,1.2v13.6
		c-0.1,0.5,0.1,0.9,0.5,1.2c0.4,0.2,0.8,0.3,1.2,0.3h7c0.5,0,0.9-0.1,1.3-0.3c0.6-0.7,0.6-1.7,0-2.4
		C124.6,17.3,124.1,17.2,123.7,17.2L123.7,17.2z M135.2,3.7H133c-0.3,0-0.7,0.1-0.8,0.4c-0.2,0.4-0.3,0.8-0.3,1.3
		c0,0.4,0,0.9,0.2,1.3c0.2,0.3,0.5,0.4,0.8,0.4h0.9v12.3c0,0.5,0.3,1.1,1.6,1.1s1.6-0.6,1.6-1.1V5.1C137,4.5,136.7,3.7,135.2,3.7
		L135.2,3.7z" fill="ffffff"/>
	</symbol>

	<symbol viewBox="0 0 24 24" id="icon-facebook"  width="23" height="23">
		<path fill="ffffff" d="M16.403,9H14V7c0-1.032,0.084-1.682,1.563-1.682h0.868c0.552,0,1-0.448,1-1V3.064c0-0.523-0.401-0.97-0.923-1.005 C15.904,2.018,15.299,1.999,14.693,2C11.98,2,10,3.657,10,6.699V9H8c-0.552,0-1,0.448-1,1v2c0,0.552,0.448,1,1,1l2-0.001V21 c0,0.552,0.448,1,1,1h2c0.552,0,1-0.448,1-1v-8.003l2.174-0.001c0.508,0,0.935-0.381,0.993-0.886l0.229-1.996 C17.465,9.521,17.001,9,16.403,9z"/>
	</symbol>

	<symbol viewBox="0 0 48 48" id="icon-twitter"  width="23" height="23">
		<path fill="#ffffff" d="M42,12.429c-1.323,0.586-2.746,0.977-4.247,1.162c1.526-0.906,2.7-2.351,3.251-4.058c-1.428,0.837-3.01,1.452-4.693,1.776C34.967,9.884,33.05,9,30.926,9c-4.08,0-7.387,3.278-7.387,7.32c0,0.572,0.067,1.129,0.193,1.67c-6.138-0.308-11.582-3.226-15.224-7.654c-0.64,1.082-1,2.349-1,3.686c0,2.541,1.301,4.778,3.285,6.096c-1.211-0.037-2.351-0.374-3.349-0.914c0,0.022,0,0.055,0,0.086c0,3.551,2.547,6.508,5.923,7.181c-0.617,0.169-1.269,0.263-1.941,0.263c-0.477,0-0.942-0.054-1.392-0.135c0.94,2.902,3.667,5.023,6.898,5.086c-2.528,1.96-5.712,3.134-9.174,3.134c-0.598,0-1.183-0.034-1.761-0.104C9.268,36.786,13.152,38,17.321,38c13.585,0,21.017-11.156,21.017-20.834c0-0.317-0.01-0.633-0.025-0.945C39.763,15.197,41.013,13.905,42,12.429"/>
	</symbol>

	<symbol viewBox="0 0 100 125" id="icon-instagram"  width="23" height="23">
		<path fill="#ffffff" d="M80.1,5.5H19.9C11.7,5.5,5,12.2,5,20.4v60.3c0,8.2,6.7,14.9,14.9,14.9h60.3c8.2,0,14.9-6.7,14.9-14.9V20.4  C95,12.2,88.3,5.5,80.1,5.5z M85.1,20.4v7.9c0,2.5-2,4.5-4.5,4.5h-8.3c-2.5,0-4.5-2-4.5-4.5V20c0-2.5,2-4.5,4.5-4.5h8.3  c2.5,0,4.5,2,4.5,4.5V20.4z M67.1,50.5c0,9.5-7.7,17.1-17.1,17.1c-9.5,0-17.1-7.7-17.1-17.1c0-9.4,7.7-17.1,17.1-17.1  C59.4,33.4,67.1,41,67.1,50.5z M80.1,85.6H19.9c-2.7,0-5-2.2-5-5V41.3h9.6c-1,2.9-1.6,5.9-1.6,9.2c0,14.9,12.1,27,27.1,27  c14.9,0,27-12.1,27-27c0-3.2-0.6-6.3-1.6-9.2h9.6v39.3C85.1,83.4,82.9,85.6,80.1,85.6z"/>
	</symbol>

</svg>