<?xml version="1.0" encoding="utf-8"?>
<!-- Generator: Adobe Illustrator 24.1.3, SVG Export Plug-In . SVG Version: 6.00 Build 0)  -->
<svg version="1.1" id="Слой_1" xmlns="http://www.w3.org/2000/svg" xmlns:xlink="http://www.w3.org/1999/xlink" x="0px" y="0px" width="50" heigh="60"
	 viewBox="0 0 50 60" style="enable-background:new 0 0 50 60;" xml:space="preserve">
<style type="text/css">
	.st0{fill:#ffffff;}
</style>
<g>
	<path d="M27,60c-1.3,0-2.7,0-4,0c-7.7-3.3-15.3-6.7-23-10C0,33.3,0,16.7,0,0c16.7,0,33.3,0,50,0c0,16.7,0,33.3,0,50
		C42.3,53.3,34.7,56.7,27,60z"/>
	<path class="st0" d="M0,50c7.7,3.3,15.3,6.7,23,10c-7.7,0-15.3,0-23,0C0,56.7,0,53.3,0,50z"/>
	<path class="st0" d="M27,60c7.7-3.3,15.3-6.7,23-10c0,3.3,0,6.7,0,10C42.3,60,34.7,60,27,60z"/>
</g>
</svg>
