<svg xmlns="http://www.w3.org/2000/svg" viewBox="0 0 100 125" width="23" height="23"><path d="M80.1 5.5H19.9C11.7 5.5 5 12.2 5 20.4v60.3c0 8.2 6.7 14.9 14.9 14.9h60.3c8.2 0 14.9-6.7 14.9-14.9V20.4c-.1-8.2-6.8-14.9-15-14.9zm5 14.9v7.9c0 2.5-2 4.5-4.5 4.5h-8.3c-2.5 0-4.5-2-4.5-4.5V20c0-2.5 2-4.5 4.5-4.5h8.3c2.5 0 4.5 2 4.5 4.5v.4zm-18 30.1c0 9.5-7.7 17.1-17.1 17.1-9.5 0-17.1-7.7-17.1-17.1 0-9.4 7.7-17.1 17.1-17.1 9.4 0 17.1 7.6 17.1 17.1zm13 35.1H19.9c-2.7 0-5-2.2-5-5V41.3h9.6c-1 2.9-1.6 5.9-1.6 9.2 0 14.9 12.1 27 27.1 27 14.9 0 27-12.1 27-27 0-3.2-.6-6.3-1.6-9.2H85v39.3c.1 2.8-2.1 5-4.9 5z" fill="#fff"/></svg>