<svg version="1.1" id="Слой_1" xmlns="http://www.w3.org/2000/svg" x="0" y="0" viewBox="0 0 137 23.9" xml:space="preserve"><path id="Фигура_1" d="M25 10.9L10.6.3c-.4-.3-.9-.4-1.4-.1-.4.2-.7.7-.7 1.2V8H3.7c-.4 0-.8.4-.7.9 0 .4.4.7.8.8h4.8v1.4H.8c-.5 0-.8.4-.8.9 0 .4.4.7.8.8h7.7v1.4H3.7c-.5.1-.8.5-.8 1 0 .4.4.7.8.8h4.8v6.6c0 .5.3 1 .7 1.2.2.1.4.2.6.2.3 0 .5-.1.8-.3L25 13.1c.3-.3.5-.7.5-1.1 0-.5-.2-.9-.5-1.1zm-13.8 9.2V16h2.6c.5-.1.8-.5.8-1 0-.4-.4-.7-.8-.8h-2.6v-1.4h5.1c.5-.1.8-.5.8-1 0-.4-.4-.7-.8-.8h-5.2V9.6h2.6c.5-.1.8-.5.8-1 0-.4-.4-.7-.8-.8h-2.6v-4L22 12l-10.8 8.1zm29-7.8c-.4-.4-.8-.8-1.3-1-.6-.4-1.2-.7-1.8-.9-.3-.1-.6-.3-.9-.4-.3-.1-.6-.3-.9-.5-.3-.3-.5-.5-.8-.7-.2-.2-.3-.5-.3-.8 0-.2 0-.4.1-.6.1-.2.2-.4.3-.5.1-.2.3-.3.5-.4.4-.2.9-.2 1.4 0 .2.1.5.2.7.3l.6.3c.2.1.4.2.5.3.1.1.3.2.5.2h.6c.2 0 .4-.1.6-.2.2-.1.3-.3.5-.5.2-.4.3-.9.1-1.3-.2-.5-.5-.9-.9-1.1-.5-.4-1-.7-1.6-.8-.7-.2-1.3-.4-2-.4H36c-.6 0-1.2.1-1.8.3-.6.1-1.2.4-1.7.8-2 1.5-2.3 4.3-.8 6.3.2.2.3.4.5.5.4.4.9.7 1.5 1 .6.3 1.2.5 1.8.8.3.1.5.2.7.3.3.1.5.3.7.5.2.2.4.4.6.7.1.3.2.6.2.9 0 .3-.1.6-.2.9-.1.3-.3.5-.5.7-.2.2-.5.3-.7.4-.6.2-1.2.2-1.8 0-.3-.1-.6-.2-.8-.3-.3-.1-.5-.3-.8-.5-.2-.2-.5-.3-.7-.5-.3-.2-.6-.3-1-.2-.4.1-.7.3-.9.7-.1.2-.2.5-.2.7 0 .3 0 .6.2.9.1.3.3.6.6.8.3.3.6.5 1 .7.5.3 1 .5 1.6.7.5.2 1.1.3 1.7.3h.3c1.6.1 3.1-.5 4.3-1.6 1-1 1.5-2.4 1.5-3.9 0-.5 0-1.1-.2-1.6-.3-.5-.6-.9-.9-1.3zm14.5-8.9c-.5-.1-1 .1-1.3.5-.2.3-.4.6-.4 1v8.6c0 .6 0 1.2-.1 1.8-.1.4-.2.9-.5 1.2-.2.3-.5.6-.9.8-1 .4-2.1.4-3.1 0-.4-.2-.7-.4-.9-.8-.3-.5-.5-.9-.5-1.4-.1-.6-.2-1.1-.2-1.7V4.8c0-.4-.1-.7-.4-1-.3-.3-.8-.5-1.3-.4-.5 0-1 .1-1.3.5-.2.3-.4.6-.4 1v10c0 .9.2 1.8.6 2.6.4.7.9 1.3 1.5 1.8s1.3.8 2.1 1.1c1.5.5 3.2.5 4.7 0 .7-.2 1.4-.6 2.1-1.1 1.3-1 2.1-2.6 2-4.3V5c0-.4-.1-.7-.4-1-.4-.5-.9-.6-1.3-.6zm11.8 9.9l.5-.1c1-.2 1.9-.7 2.5-1.5.7-.9 1-2.1.9-3.2 0-.8-.1-1.6-.4-2.3-.1-.6-.5-1.2-1-1.6-.5-.4-1.1-.7-1.8-.8-.8-.2-1.6-.2-2.4-.2h-3.4c-.3 0-.7 0-1 .1-.2 0-.5.1-.7.3-.2.1-.3.4-.4.6-.1.3-.1.6-.1.8v13.7c0 .3.1.7.4 1 .3.3.8.5 1.3.5s.9-.1 1.3-.4c.3-.3.4-.6.4-1V14l5.6 6.1c.3.3.6.4 1 .4h.1c.5 0 .9-.2 1.2-.6.3-.3.5-.8.5-1.2 0-.5-.2-.9-.5-1.2l-4-4.2zm-3.9-2.9V6.7h2.2c.3 0 .6 0 .9.1.3 0 .5.1.7.3.2.1.4.3.5.5.1.3.2.6.2.9.1.6-.1 1.1-.5 1.5-.5.3-1.2.4-1.8.4h-2.2zm19.9-6.8h-7c-.4 0-.9.1-1.2.3-.3.3-.5.7-.4 1.2v14.2c0 .3.2.6.4.8.4.3.8.4 1.3.4s.9-.1 1.3-.4c.3-.2.4-.5.4-.8v-6.1h4.6c.4 0 .8-.1 1.2-.3.3-.3.4-.7.4-1.1 0-.4-.1-.8-.4-1.2-.3-.3-.8-.4-1.2-.4h-4.6V6.7h5.3c.4 0 .8-.1 1.1-.3.2-.4.4-.8.3-1.3 0-.4-.1-.9-.4-1.2-.3-.2-.7-.3-1.1-.3zm9.8.9c-.1-.3-.3-.6-.6-.8-.7-.4-1.6-.4-2.3 0-.3.2-.5.5-.6.8l-4.7 14c-.1.5 0 1.1.3 1.5.3.3.8.5 1.3.5.4 0 .9-.1 1.2-.4.3-.3.5-.6.6-1l.9-2.5h4.3l1 2.6c.1.3.3.6.6.9.3.3.7.4 1.1.4h.1c.5 0 .9-.1 1.3-.5s.4-1 .2-1.5l-4.7-14zm-3.1 9l1.5-4.8 1.5 4.8h-3zm22.3 2.7c-.4-.2-1-.1-1.3.2-.2.2-.4.3-.6.5-.2.1-.4.3-.6.4-.3.1-.5.2-.8.3-.3.1-.7.1-1.1.1h-.1c-.7 0-1.3-.1-1.9-.5-.6-.3-1.1-.7-1.5-1.3-.4-.6-.7-1.2-.9-1.8-.2-.7-.3-1.4-.3-2.2 0-.7.1-1.4.3-2.1.2-.6.4-1.2.8-1.8.3-.5.8-.9 1.3-1.2.5-.3 1.2-.5 1.8-.5.5 0 1 .1 1.5.3.4.2.7.4 1.1.6.3.2.6.4.9.5.3.2.7.2 1 0 .2-.1.4-.2.5-.3l.3-.3c0-.1.1-.2.1-.3.1-.2.1-.4 0-.6-.1-.3-.2-.7-.5-.9-.3-.4-.7-.7-1.1-1-1.1-.7-2.4-1.1-3.8-1-1 0-2 .2-3 .6-.9.4-1.7 1-2.4 1.7-.7.8-1.2 1.7-1.6 2.7-.4 1.2-.6 2.4-.6 3.7 0 1.3.2 2.5.6 3.7.4 1 .9 2 1.7 2.8.7.8 1.6 1.4 2.6 1.7 1 .4 2.1.6 3.2.6.7 0 1.5-.1 2.2-.3.6-.2 1.1-.5 1.6-.8.4-.3.8-.6 1.1-1 .2-.2.4-.5.4-.9 0-.3 0-.6-.2-.9 0-.4-.3-.6-.7-.7zm12.2 1h-5.3v-4h5c.4 0 .8-.1 1.2-.3.3-.3.4-.7.4-1.1 0-.4-.1-.8-.4-1.2-.3-.3-.8-.4-1.2-.4h-5V6.7h5.3c.4 0 .8-.1 1.1-.3.3-.3.5-.7.4-1.2 0-.4-.1-.9-.4-1.2-.3-.2-.7-.4-1.1-.3h-7c-.4 0-.9.1-1.2.3-.3.3-.5.7-.4 1.2v13.6c-.1.5.1.9.5 1.2.4.2.8.3 1.2.3h7c.5 0 .9-.1 1.3-.3.6-.7.6-1.7 0-2.4-.5-.3-1-.4-1.4-.4zm11.5-13.5H133c-.3 0-.7.1-.8.4-.2.4-.3.8-.3 1.3 0 .4 0 .9.2 1.3.2.3.5.4.8.4h.9v12.3c0 .5.3 1.1 1.6 1.1s1.6-.6 1.6-1.1V5.1c0-.6-.3-1.4-1.8-1.4z" fill-rule="evenodd" clip-rule="evenodd" fill="#fff"/></svg>