<?xml version="1.0" encoding="utf-8"?>
<!-- Generator: Adobe Illustrator 24.1.3, SVG Export Plug-In . SVG Version: 6.00 Build 0)  -->
<svg version="1.1" id="Слой_1" xmlns="http://www.w3.org/2000/svg" xmlns:xlink="http://www.w3.org/1999/xlink" x="0px" y="0px"
	 viewBox="0 0 137 23.9" style="enable-background:new 0 0 137 23.9;" xml:space="preserve">
<style type="text/css">
	.st0{fill-rule:evenodd;clip-rule:evenodd;fill:#fff;}
</style>
<path id="Фигура_1" class="st0" d="M25,10.9L10.6,0.3C10.2,0,9.7-0.1,9.2,0.2C8.8,0.4,8.5,0.9,8.5,1.4v6.6H3.7
	C3.3,8,2.9,8.4,3,8.9c0,0.4,0.4,0.7,0.8,0.8h4.8v1.4H0.8C0.3,11.1,0,11.5,0,12c0,0.4,0.4,0.7,0.8,0.8h7.7v1.4H3.7
	c-0.5,0.1-0.8,0.5-0.8,1c0,0.4,0.4,0.7,0.8,0.8h4.8v6.6c0,0.5,0.3,1,0.7,1.2c0.2,0.1,0.4,0.2,0.6,0.2c0.3,0,0.5-0.1,0.8-0.3L25,13.1
	c0.3-0.3,0.5-0.7,0.5-1.1C25.5,11.5,25.3,11.1,25,10.9z M11.2,20.1V16h2.6c0.5-0.1,0.8-0.5,0.8-1c0-0.4-0.4-0.7-0.8-0.8h-2.6l0-1.4
	h5.1c0.5-0.1,0.8-0.5,0.8-1c0-0.4-0.4-0.7-0.8-0.8h-5.2l0-1.4h2.6c0.5-0.1,0.8-0.5,0.8-1c0-0.4-0.4-0.7-0.8-0.8h-2.6l0-4L22,12
	L11.2,20.1z M40.2,12.3c-0.4-0.4-0.8-0.8-1.3-1c-0.6-0.4-1.2-0.7-1.8-0.9c-0.3-0.1-0.6-0.3-0.9-0.4c-0.3-0.1-0.6-0.3-0.9-0.5
	C35,9.2,34.8,9,34.5,8.8c-0.2-0.2-0.3-0.5-0.3-0.8c0-0.2,0-0.4,0.1-0.6c0.1-0.2,0.2-0.4,0.3-0.5c0.1-0.2,0.3-0.3,0.5-0.4
	c0.4-0.2,0.9-0.2,1.4,0c0.2,0.1,0.5,0.2,0.7,0.3c0.2,0.1,0.4,0.2,0.6,0.3c0.2,0.1,0.4,0.2,0.5,0.3c0.1,0.1,0.3,0.2,0.5,0.2
	c0.2,0,0.4,0,0.6,0c0.2,0,0.4-0.1,0.6-0.2c0.2-0.1,0.3-0.3,0.5-0.5c0.2-0.4,0.3-0.9,0.1-1.3c-0.2-0.5-0.5-0.9-0.9-1.1
	c-0.5-0.4-1-0.7-1.6-0.8c-0.7-0.2-1.3-0.4-2-0.4H36c-0.6,0-1.2,0.1-1.8,0.3C33.6,3.7,33,4,32.5,4.4c-2,1.5-2.3,4.3-0.8,6.3
	c0.2,0.2,0.3,0.4,0.5,0.5c0.4,0.4,0.9,0.7,1.5,1c0.6,0.3,1.2,0.5,1.8,0.8c0.3,0.1,0.5,0.2,0.7,0.3c0.3,0.1,0.5,0.3,0.7,0.5
	c0.2,0.2,0.4,0.4,0.6,0.7c0.1,0.3,0.2,0.6,0.2,0.9c0,0.3-0.1,0.6-0.2,0.9c-0.1,0.3-0.3,0.5-0.5,0.7c-0.2,0.2-0.5,0.3-0.7,0.4
	c-0.6,0.2-1.2,0.2-1.8,0c-0.3-0.1-0.6-0.2-0.8-0.3c-0.3-0.1-0.5-0.3-0.8-0.5c-0.2-0.2-0.5-0.3-0.7-0.5c-0.3-0.2-0.6-0.3-1-0.2
	c-0.4,0.1-0.7,0.3-0.9,0.7c-0.1,0.2-0.2,0.5-0.2,0.7c0,0.3,0,0.6,0.2,0.9c0.1,0.3,0.3,0.6,0.6,0.8c0.3,0.3,0.6,0.5,1,0.7
	c0.5,0.3,1,0.5,1.6,0.7c0.5,0.2,1.1,0.3,1.7,0.3c0.1,0,0.2,0,0.3,0c1.6,0.1,3.1-0.5,4.3-1.6c1-1,1.5-2.4,1.5-3.9
	c0-0.5,0-1.1-0.2-1.6C40.8,13.1,40.5,12.7,40.2,12.3L40.2,12.3z M54.7,3.4c-0.5-0.1-1,0.1-1.3,0.5c-0.2,0.3-0.4,0.6-0.4,1v8.6
	c0,0.6,0,1.2-0.1,1.8c-0.1,0.4-0.2,0.9-0.5,1.2c-0.2,0.3-0.5,0.6-0.9,0.8c-1,0.4-2.1,0.4-3.1,0c-0.4-0.2-0.7-0.4-0.9-0.8
	C47.2,16,47,15.6,47,15.1c-0.1-0.6-0.2-1.1-0.2-1.7V4.8c0-0.4-0.1-0.7-0.4-1c-0.3-0.3-0.8-0.5-1.3-0.4c-0.5,0-1,0.1-1.3,0.5
	c-0.2,0.3-0.4,0.6-0.4,1v10c0,0.9,0.2,1.8,0.6,2.6c0.4,0.7,0.9,1.3,1.5,1.8c0.6,0.5,1.3,0.8,2.1,1.1c1.5,0.5,3.2,0.5,4.7,0
	c0.7-0.2,1.4-0.6,2.1-1.1c1.3-1,2.1-2.6,2-4.3v-10c0-0.4-0.1-0.7-0.4-1C55.6,3.5,55.1,3.4,54.7,3.4L54.7,3.4z M66.5,13.3L66.5,13.3
	l0.5-0.1c1-0.2,1.9-0.7,2.5-1.5c0.7-0.9,1-2.1,0.9-3.2c0-0.8-0.1-1.6-0.4-2.3C69.9,5.6,69.5,5,69,4.6c-0.5-0.4-1.1-0.7-1.8-0.8
	c-0.8-0.2-1.6-0.2-2.4-0.2h-3.4c-0.3,0-0.7,0-1,0.1c-0.2,0-0.5,0.1-0.7,0.3c-0.2,0.1-0.3,0.4-0.4,0.6c-0.1,0.3-0.1,0.6-0.1,0.8v13.7
	c0,0.3,0.1,0.7,0.4,1c0.3,0.3,0.8,0.5,1.3,0.5c0.5,0,0.9-0.1,1.3-0.4c0.3-0.3,0.4-0.6,0.4-1V14l5.6,6.1c0.3,0.3,0.6,0.4,1,0.4
	c0,0,0.1,0,0.1,0c0.5,0,0.9-0.2,1.2-0.6c0.3-0.3,0.5-0.8,0.5-1.2c0-0.5-0.2-0.9-0.5-1.2L66.5,13.3z M62.6,10.4V6.7h2.2
	c0.3,0,0.6,0,0.9,0.1c0.3,0,0.5,0.1,0.7,0.3c0.2,0.1,0.4,0.3,0.5,0.5c0.1,0.3,0.2,0.6,0.2,0.9c0.1,0.6-0.1,1.1-0.5,1.5
	c-0.5,0.3-1.2,0.4-1.8,0.4L62.6,10.4L62.6,10.4z M82.5,3.6h-7c-0.4,0-0.9,0.1-1.2,0.3c-0.3,0.3-0.5,0.7-0.4,1.2v14.2
	c0,0.3,0.2,0.6,0.4,0.8c0.4,0.3,0.8,0.4,1.3,0.4c0.5,0,0.9-0.1,1.3-0.4c0.3-0.2,0.4-0.5,0.4-0.8v-6.1h4.6c0.4,0,0.8-0.1,1.2-0.3
	c0.3-0.3,0.4-0.7,0.4-1.1c0-0.4-0.1-0.8-0.4-1.2c-0.3-0.3-0.8-0.4-1.2-0.4h-4.6V6.7h5.3c0.4,0,0.8-0.1,1.1-0.3
	C83.9,6,84.1,5.6,84,5.1c0-0.4-0.1-0.9-0.4-1.2C83.3,3.7,82.9,3.6,82.5,3.6z M92.3,4.5c-0.1-0.3-0.3-0.6-0.6-0.8
	c-0.7-0.4-1.6-0.4-2.3,0c-0.3,0.2-0.5,0.5-0.6,0.8l-4.7,14C84,19,84.1,19.6,84.4,20c0.3,0.3,0.8,0.5,1.3,0.5c0.4,0,0.9-0.1,1.2-0.4
	c0.3-0.3,0.5-0.6,0.6-1l0.9-2.5h4.3l1,2.6c0.1,0.3,0.3,0.6,0.6,0.9c0.3,0.3,0.7,0.4,1.1,0.4h0.1c0.5,0,0.9-0.1,1.3-0.5
	c0.4-0.4,0.4-1,0.2-1.5L92.3,4.5z M89.2,13.5l1.5-4.8l1.5,4.8H89.2z M111.5,16.2c-0.4-0.2-1-0.1-1.3,0.2c-0.2,0.2-0.4,0.3-0.6,0.5
	c-0.2,0.1-0.4,0.3-0.6,0.4c-0.3,0.1-0.5,0.2-0.8,0.3c-0.3,0.1-0.7,0.1-1.1,0.1h-0.1c-0.7,0-1.3-0.1-1.9-0.5
	c-0.6-0.3-1.1-0.7-1.5-1.3c-0.4-0.6-0.7-1.2-0.9-1.8c-0.2-0.7-0.3-1.4-0.3-2.2c0-0.7,0.1-1.4,0.3-2.1c0.2-0.6,0.4-1.2,0.8-1.8
	c0.3-0.5,0.8-0.9,1.3-1.2c0.5-0.3,1.2-0.5,1.8-0.5c0.5,0,1,0.1,1.5,0.3c0.4,0.2,0.7,0.4,1.1,0.6c0.3,0.2,0.6,0.4,0.9,0.5
	c0.3,0.2,0.7,0.2,1,0c0.2-0.1,0.4-0.2,0.5-0.3c0.1-0.1,0.2-0.2,0.3-0.3c0-0.1,0.1-0.2,0.1-0.3c0.1-0.2,0.1-0.4,0-0.6
	c-0.1-0.3-0.2-0.7-0.5-0.9c-0.3-0.4-0.7-0.7-1.1-1c-1.1-0.7-2.4-1.1-3.8-1c-1,0-2,0.2-3,0.6c-0.9,0.4-1.7,1-2.4,1.7
	c-0.7,0.8-1.2,1.7-1.6,2.7c-0.4,1.2-0.6,2.4-0.6,3.7c0,1.3,0.2,2.5,0.6,3.7c0.4,1,0.9,2,1.7,2.8c0.7,0.8,1.6,1.4,2.6,1.7
	c1,0.4,2.1,0.6,3.2,0.6c0.7,0,1.5-0.1,2.2-0.3c0.6-0.2,1.1-0.5,1.6-0.8c0.4-0.3,0.8-0.6,1.1-1c0.2-0.2,0.4-0.5,0.4-0.9
	c0-0.3,0-0.6-0.2-0.9C112.2,16.5,111.9,16.3,111.5,16.2L111.5,16.2z M123.7,17.2h-5.3v-4h5c0.4,0,0.8-0.1,1.2-0.3
	c0.3-0.3,0.4-0.7,0.4-1.1c0-0.4-0.1-0.8-0.4-1.2c-0.3-0.3-0.8-0.4-1.2-0.4h-5V6.7h5.3c0.4,0,0.8-0.1,1.1-0.3
	c0.3-0.3,0.5-0.7,0.4-1.2c0-0.4-0.1-0.9-0.4-1.2c-0.3-0.2-0.7-0.4-1.1-0.3h-7c-0.4,0-0.9,0.1-1.2,0.3c-0.3,0.3-0.5,0.7-0.4,1.2v13.6
	c-0.1,0.5,0.1,0.9,0.5,1.2c0.4,0.2,0.8,0.3,1.2,0.3h7c0.5,0,0.9-0.1,1.3-0.3c0.6-0.7,0.6-1.7,0-2.4
	C124.6,17.3,124.1,17.2,123.7,17.2L123.7,17.2z M135.2,3.7H133c-0.3,0-0.7,0.1-0.8,0.4c-0.2,0.4-0.3,0.8-0.3,1.3
	c0,0.4,0,0.9,0.2,1.3c0.2,0.3,0.5,0.4,0.8,0.4h0.9v12.3c0,0.5,0.3,1.1,1.6,1.1s1.6-0.6,1.6-1.1V5.1C137,4.5,136.7,3.7,135.2,3.7
	L135.2,3.7z"/>
</svg>
