<svg xmlns="http://www.w3.org/2000/svg"><symbol viewBox="0 0 137 23.9" id="icon-logo"><path d="M25 10.9L10.6.3c-.4-.3-.9-.4-1.4-.1-.4.2-.7.7-.7 1.2V8H3.7c-.4 0-.8.4-.7.9 0 .4.4.7.8.8h4.8v1.4H.8c-.5 0-.8.4-.8.9 0 .4.4.7.8.8h7.7v1.4H3.7c-.5.1-.8.5-.8 1 0 .4.4.7.8.8h4.8v6.6c0 .5.3 1 .7 1.2.2.1.4.2.6.2.3 0 .5-.1.8-.3L25 13.1c.3-.3.5-.7.5-1.1 0-.5-.2-.9-.5-1.1zm-13.8 9.2V16h2.6c.5-.1.8-.5.8-1 0-.4-.4-.7-.8-.8h-2.6v-1.4h5.1c.5-.1.8-.5.8-1 0-.4-.4-.7-.8-.8h-5.2V9.6h2.6c.5-.1.8-.5.8-1 0-.4-.4-.7-.8-.8h-2.6v-4L22 12l-10.8 8.1zm29-7.8c-.4-.4-.8-.8-1.3-1-.6-.4-1.2-.7-1.8-.9-.3-.1-.6-.3-.9-.4-.3-.1-.6-.3-.9-.5-.3-.3-.5-.5-.8-.7-.2-.2-.3-.5-.3-.8 0-.2 0-.4.1-.6.1-.2.2-.4.3-.5.1-.2.3-.3.5-.4.4-.2.9-.2 1.4 0 .2.1.5.2.7.3l.6.3c.2.1.4.2.5.3.1.1.3.2.5.2h.6c.2 0 .4-.1.6-.2.2-.1.3-.3.5-.5.2-.4.3-.9.1-1.3-.2-.5-.5-.9-.9-1.1-.5-.4-1-.7-1.6-.8-.7-.2-1.3-.4-2-.4H36c-.6 0-1.2.1-1.8.3-.6.1-1.2.4-1.7.8-2 1.5-2.3 4.3-.8 6.3.2.2.3.4.5.5.4.4.9.7 1.5 1 .6.3 1.2.5 1.8.8.3.1.5.2.7.3.3.1.5.3.7.5.2.2.4.4.6.7.1.3.2.6.2.9 0 .3-.1.6-.2.9-.1.3-.3.5-.5.7-.2.2-.5.3-.7.4-.6.2-1.2.2-1.8 0-.3-.1-.6-.2-.8-.3-.3-.1-.5-.3-.8-.5-.2-.2-.5-.3-.7-.5-.3-.2-.6-.3-1-.2-.4.1-.7.3-.9.7-.1.2-.2.5-.2.7 0 .3 0 .6.2.9.1.3.3.6.6.8.3.3.6.5 1 .7.5.3 1 .5 1.6.7.5.2 1.1.3 1.7.3h.3c1.6.1 3.1-.5 4.3-1.6 1-1 1.5-2.4 1.5-3.9 0-.5 0-1.1-.2-1.6-.3-.5-.6-.9-.9-1.3zm14.5-8.9c-.5-.1-1 .1-1.3.5-.2.3-.4.6-.4 1v8.6c0 .6 0 1.2-.1 1.8-.1.4-.2.9-.5 1.2-.2.3-.5.6-.9.8-1 .4-2.1.4-3.1 0-.4-.2-.7-.4-.9-.8-.3-.5-.5-.9-.5-1.4-.1-.6-.2-1.1-.2-1.7V4.8c0-.4-.1-.7-.4-1-.3-.3-.8-.5-1.3-.4-.5 0-1 .1-1.3.5-.2.3-.4.6-.4 1v10c0 .9.2 1.8.6 2.6.4.7.9 1.3 1.5 1.8s1.3.8 2.1 1.1c1.5.5 3.2.5 4.7 0 .7-.2 1.4-.6 2.1-1.1 1.3-1 2.1-2.6 2-4.3V5c0-.4-.1-.7-.4-1-.4-.5-.9-.6-1.3-.6zm11.8 9.9l.5-.1c1-.2 1.9-.7 2.5-1.5.7-.9 1-2.1.9-3.2 0-.8-.1-1.6-.4-2.3-.1-.6-.5-1.2-1-1.6-.5-.4-1.1-.7-1.8-.8-.8-.2-1.6-.2-2.4-.2h-3.4c-.3 0-.7 0-1 .1-.2 0-.5.1-.7.3-.2.1-.3.4-.4.6-.1.3-.1.6-.1.8v13.7c0 .3.1.7.4 1 .3.3.8.5 1.3.5s.9-.1 1.3-.4c.3-.3.4-.6.4-1V14l5.6 6.1c.3.3.6.4 1 .4h.1c.5 0 .9-.2 1.2-.6.3-.3.5-.8.5-1.2 0-.5-.2-.9-.5-1.2l-4-4.2zm-3.9-2.9V6.7h2.2c.3 0 .6 0 .9.1.3 0 .5.1.7.3.2.1.4.3.5.5.1.3.2.6.2.9.1.6-.1 1.1-.5 1.5-.5.3-1.2.4-1.8.4h-2.2zm19.9-6.8h-7c-.4 0-.9.1-1.2.3-.3.3-.5.7-.4 1.2v14.2c0 .3.2.6.4.8.4.3.8.4 1.3.4s.9-.1 1.3-.4c.3-.2.4-.5.4-.8v-6.1h4.6c.4 0 .8-.1 1.2-.3.3-.3.4-.7.4-1.1 0-.4-.1-.8-.4-1.2-.3-.3-.8-.4-1.2-.4h-4.6V6.7h5.3c.4 0 .8-.1 1.1-.3.2-.4.4-.8.3-1.3 0-.4-.1-.9-.4-1.2-.3-.2-.7-.3-1.1-.3zm9.8.9c-.1-.3-.3-.6-.6-.8-.7-.4-1.6-.4-2.3 0-.3.2-.5.5-.6.8l-4.7 14c-.1.5 0 1.1.3 1.5.3.3.8.5 1.3.5.4 0 .9-.1 1.2-.4.3-.3.5-.6.6-1l.9-2.5h4.3l1 2.6c.1.3.3.6.6.9.3.3.7.4 1.1.4h.1c.5 0 .9-.1 1.3-.5s.4-1 .2-1.5l-4.7-14zm-3.1 9l1.5-4.8 1.5 4.8h-3zm22.3 2.7c-.4-.2-1-.1-1.3.2-.2.2-.4.3-.6.5-.2.1-.4.3-.6.4-.3.1-.5.2-.8.3-.3.1-.7.1-1.1.1h-.1c-.7 0-1.3-.1-1.9-.5-.6-.3-1.1-.7-1.5-1.3-.4-.6-.7-1.2-.9-1.8-.2-.7-.3-1.4-.3-2.2 0-.7.1-1.4.3-2.1.2-.6.4-1.2.8-1.8.3-.5.8-.9 1.3-1.2.5-.3 1.2-.5 1.8-.5.5 0 1 .1 1.5.3.4.2.7.4 1.1.6.3.2.6.4.9.5.3.2.7.2 1 0 .2-.1.4-.2.5-.3l.3-.3c0-.1.1-.2.1-.3.1-.2.1-.4 0-.6-.1-.3-.2-.7-.5-.9-.3-.4-.7-.7-1.1-1-1.1-.7-2.4-1.1-3.8-1-1 0-2 .2-3 .6-.9.4-1.7 1-2.4 1.7-.7.8-1.2 1.7-1.6 2.7-.4 1.2-.6 2.4-.6 3.7 0 1.3.2 2.5.6 3.7.4 1 .9 2 1.7 2.8.7.8 1.6 1.4 2.6 1.7 1 .4 2.1.6 3.2.6.7 0 1.5-.1 2.2-.3.6-.2 1.1-.5 1.6-.8.4-.3.8-.6 1.1-1 .2-.2.4-.5.4-.9 0-.3 0-.6-.2-.9 0-.4-.3-.6-.7-.7zm12.2 1h-5.3v-4h5c.4 0 .8-.1 1.2-.3.3-.3.4-.7.4-1.1 0-.4-.1-.8-.4-1.2-.3-.3-.8-.4-1.2-.4h-5V6.7h5.3c.4 0 .8-.1 1.1-.3.3-.3.5-.7.4-1.2 0-.4-.1-.9-.4-1.2-.3-.2-.7-.4-1.1-.3h-7c-.4 0-.9.1-1.2.3-.3.3-.5.7-.4 1.2v13.6c-.1.5.1.9.5 1.2.4.2.8.3 1.2.3h7c.5 0 .9-.1 1.3-.3.6-.7.6-1.7 0-2.4-.5-.3-1-.4-1.4-.4zm11.5-13.5H133c-.3 0-.7.1-.8.4-.2.4-.3.8-.3 1.3 0 .4 0 .9.2 1.3.2.3.5.4.8.4h.9v12.3c0 .5.3 1.1 1.6 1.1s1.6-.6 1.6-1.1V5.1c0-.6-.3-1.4-1.8-1.4z" fill="ffffff"/></symbol><symbol viewBox="0 0 24 24" id="icon-facebook"><path fill="ffffff" d="M16.403 9H14V7c0-1.032.084-1.682 1.563-1.682h.868a1 1 0 001-1V3.064c0-.523-.401-.97-.923-1.005A26.154 26.154 0 0014.693 2C11.98 2 10 3.657 10 6.699V9H8a1 1 0 00-1 1v2a1 1 0 001 1l2-.001V21a1 1 0 001 1h2a1 1 0 001-1v-8.003l2.174-.001a1 1 0 00.993-.886l.229-1.996A1 1 0 0016.403 9z"/></symbol><symbol viewBox="0 0 48 48" id="icon-twitter"><path fill="#fff" d="M42 12.429a14.978 14.978 0 01-4.247 1.162 7.38 7.38 0 003.251-4.058 14.829 14.829 0 01-4.693 1.776A7.377 7.377 0 0030.926 9c-4.08 0-7.387 3.278-7.387 7.32 0 .572.067 1.129.193 1.67a21.05 21.05 0 01-15.224-7.654 7.23 7.23 0 00-1 3.686c0 2.541 1.301 4.778 3.285 6.096a7.52 7.52 0 01-3.349-.914v.086c0 3.551 2.547 6.508 5.923 7.181a7.346 7.346 0 01-1.941.263c-.477 0-.942-.054-1.392-.135.94 2.902 3.667 5.023 6.898 5.086a14.925 14.925 0 01-9.174 3.134 14.61 14.61 0 01-1.761-.104A21.109 21.109 0 0017.321 38c13.585 0 21.017-11.156 21.017-20.834 0-.317-.01-.633-.025-.945A14.532 14.532 0 0042 12.429"/></symbol><symbol viewBox="0 0 100 125" id="icon-instagram"><path fill="#fff" d="M80.1 5.5H19.9C11.7 5.5 5 12.2 5 20.4v60.3c0 8.2 6.7 14.9 14.9 14.9h60.3c8.2 0 14.9-6.7 14.9-14.9V20.4c-.1-8.2-6.8-14.9-15-14.9zm5 14.9v7.9c0 2.5-2 4.5-4.5 4.5h-8.3c-2.5 0-4.5-2-4.5-4.5V20c0-2.5 2-4.5 4.5-4.5h8.3c2.5 0 4.5 2 4.5 4.5v.4zm-18 30.1c0 9.5-7.7 17.1-17.1 17.1-9.5 0-17.1-7.7-17.1-17.1 0-9.4 7.7-17.1 17.1-17.1 9.4 0 17.1 7.6 17.1 17.1zm13 35.1H19.9c-2.7 0-5-2.2-5-5V41.3h9.6c-1 2.9-1.6 5.9-1.6 9.2 0 14.9 12.1 27 27.1 27 14.9 0 27-12.1 27-27 0-3.2-.6-6.3-1.6-9.2H85v39.3c.1 2.8-2.1 5-4.9 5z"/></symbol></svg>